<svg xmlns="http://www.w3.org/2000/svg" viewBox="0 0 1200 1200">
<path fill="#1f0326" stroke="#1f0326" d="M417.046 251.126c-32.587 6.838-61.963 32.067-73.072 62.756-6.334 17.497-5.994 7.714-6.245 180.118l-.229 157.5-80.533.5-80.533.5 25.781 37.5c14.18 20.625 25.609 37.965 25.398 38.533-.211.569-11.93 17.894-26.042 38.5L175.912 804.5l81.044.256 81.044.256v146.029l185.75-.313 185.75-.312 11-2.594c64.987-15.325 113.686-70.762 118.212-134.567l.584-8.245 92.362-.255 92.361-.255-26.02-38c-14.311-20.9-25.828-38.499-25.595-39.11.234-.61 11.908-17.821 25.943-38.245l25.517-37.135-92.182-.255-92.182-.255-.252-201.25-.253-201.25-206.247.071c-201.704.069-206.456.115-215.702 2.055M388 474.5V650h401V299H388v175.5m6.612 334.641c-14.118 16.493-3.042 41.095 18.454 40.992 21.328-.102 32.346-24.609 18.393-40.91L427.844 805h-29.688l-3.544 4.141m100.727-.539c-11.691 12.396-7.688 32.699 7.755 39.343 25.131 10.811 46.441-19.839 27.598-39.695l-3.084-3.25h-28.872l-3.397 3.602m94.107 3.545c2.076 21.068 12.872 43.438 28.44 58.929 39.816 39.618 103.532 39.29 142.189-.733 16.983-17.583 24.525-33.834 28.352-61.093l.597-4.25H588.742l.704 7.147" fill-rule="evenodd"/>
<path fill="#06efd7" stroke="#06efd7" d="M426.678 250.092c-40.752 4.304-73.799 32.956-85.849 74.431l-2.318 7.977-.276 159.744-.277 159.744-80.387.256-80.387.256 25.408 37.205c13.974 20.462 25.384 37.787 25.354 38.5-.029.712-11.442 17.945-25.361 38.295l-25.307 37 80.361.256 80.361.256V951l176.25-.001c181.14-.001 189.536-.165 206.935-4.04 55.521-12.367 100.221-56.188 113.24-111.013 2.002-8.432 4.575-25.811 4.575-30.901 0-.703 29.42-1.116 91.841-1.29l91.841-.255-25.301-37c-13.916-20.35-25.298-37.675-25.294-38.5.004-.825 11.412-18.15 25.351-38.5l25.345-37-91.892-.255L839 651.99V249l-202.25.133c-111.237.073-205.77.505-210.072.959M388 475v176h401V299H388v176m379.112 192.081c-2.414.474-4.494.987-4.623 1.14-.652.773-24.45 114.152-24.045 114.556.26.26 3.054.473 6.21.473h5.737l12.273-57.375c6.75-31.556 12.287-57.937 12.304-58.625.036-1.396-1.446-1.428-7.856-.169m36.19.075c-2.515.564-4.4 1.623-4.702 2.643-.977 3.298-23.6 110.983-23.6 112.333 0 1.005 1.59 1.368 6 1.368 3.3 0 6-.1 6-.222 0-.638 24.15-114.044 24.602-115.528.61-2.004-1.378-2.147-8.3-.594m-442.167 8.201c-5.709 6.076-3.243 14.643 4.214 14.643 7.534 0 12.456-9.71 7.779-15.346-2.17-2.614-9.268-2.198-11.993.703m362.454.72c-5.269 6.262-2.575 13.923 4.895 13.923 5.635 0 8.516-3.235 8.516-9.563 0-7.936-8.168-10.591-13.411-4.36m-465.031 1.673c-.366 2.063-.896 4.538-1.179 5.5-.476 1.622.844 1.75 18.121 1.75 17.28 0 18.597.127 18.111 1.75-.954 3.19-18.611 93.407-18.612 95.094 0 1.379 1.041 1.632 6.231 1.514l6.231-.143 9.721-48.357c5.346-26.597 9.743-48.695 9.769-49.108.027-.413 8.549-.75 18.938-.75h18.888l.665-3.75c.366-2.062.896-4.538 1.179-5.5.484-1.648-2.05-1.75-43.442-1.75h-43.956l-.665 3.75m366.588 48c-5.681 28.462-10.565 52.987-10.854 54.5l-.525 2.75h6.616c3.64 0 6.617-.138 6.617-.307 0-2.281 10.239-50.332 10.856-50.949.471-.471 8.528 10.787 17.979 25.122l17.126 25.975 7.607.329c4.184.182 7.741.194 7.905.028.163-.166-8.255-12.965-18.709-28.443-18.232-26.995-18.928-28.204-17.094-29.698 3.922-3.195 55.33-50.25 55.33-50.645 0-.227-3.782-.412-8.404-.412h-8.403l-24.847 22.987c-13.665 12.642-25.183 22.992-25.596 23-1.199.021-.981-1.447 3.609-24.293L648.718 674h-13.242l-10.33 51.75M421.89 708.47c-5.679 2.09-11.821 6.34-17.063 11.808-2.655 2.769-4.827 4.787-4.827 4.485 0-.302.715-4.007 1.589-8.234.874-4.226 1.437-7.829 1.25-8.006-.801-.762-12.027 1.807-12.411 2.839-1.026 2.756-15.33 70.989-14.996 71.532.205.333 3.023.458 6.263.278l5.891-.329 3.742-17.671c4.961-23.432 8.835-30.613 21.761-40.335 8.438-6.347 13.141-7.45 16.402-3.847 2.488 2.749 1.757 8.939-4.476 37.916-2.77 12.874-4.918 23.524-4.775 23.667.143.142 2.929.383 6.191.534l5.93.274 3.859-17.878c4.403-20.397 6.349-24.78 15.236-34.31C464.241 717.48 476 715.035 476 726.088c0 2.17-2.475 15.835-5.5 30.367-3.025 14.533-5.5 26.563-5.5 26.734-.001.171 2.783.236 6.186.145l6.186-.167 5.375-24.833c8.243-38.086 8.006-46.032-1.49-50-8.24-3.443-18.532.188-29.284 10.331-7.954 7.503-7.507 7.371-7.71 2.263-.437-10.943-10.805-16.716-22.373-12.458m114.55-.592c-26.897 6.958-44.36 50.772-27.636 69.339 9.838 10.922 28.845 10.914 45-.019 1.108-.75.117-9.097-1.302-10.965-.112-.147-2.764 1.275-5.895 3.16-16.679 10.044-30.607 5.175-30.607-10.7v-4.371l8.25-2.195c26.999-7.183 43.042-23.985 35.813-37.507-3.108-5.812-14.57-9.084-23.623-6.742m307.86.923c-31.114 11.117-43.153 61.926-17.605 74.293 8.922 4.32 23.382 2.513 35.065-4.38 3.138-1.851 3.357-2.295 2.77-5.612-1.303-7.373-.852-7.231-9.309-2.94-16.781 8.514-27.375 4.711-28.888-10.371l-.53-5.291 8.348-2.273c28.009-7.624 44.038-24.564 35.889-37.928-3.999-6.56-15.747-9.069-25.74-5.498m78.73-.688c-4.165 1.662-8.862 5.75-13.184 11.475-2.27 3.006-4.264 5.328-4.431 5.16-.168-.168.51-4.059 1.505-8.648l1.811-8.344-5.615.659c-3.089.363-6.112 1.205-6.719 1.872-1.015 1.117-15.464 68.312-15.42 71.713.016 1.203 1.209 1.433 6.021 1.161 3.301-.186 6.002-.475 6.002-.642 0-3.19 7.559-34.042 9.141-37.311 6.938-14.331 18.123-24.631 26.122-24.053l4.224.305 1.369-6.351c1.156-5.361 1.157-6.486.007-7.215-1.798-1.139-7.732-1.019-10.833.219M354 709.704c0 .387-3.375 16.569-7.5 35.96-4.125 19.391-7.5 35.837-7.5 36.546 0 .909 1.764 1.29 5.981 1.29h5.981l1.139-5.5c.627-3.025 4.152-19.571 7.834-36.768 3.683-17.198 6.478-31.485 6.213-31.75-.765-.766-12.148-.558-12.148.222m363-.317c0 .213-3.388 16.301-7.529 35.75-4.14 19.45-7.628 36.004-7.75 36.787-.189 1.216 10.85 1.835 12.014.673.409-.407 15.265-70.62 15.265-72.144 0-1.109-1.419-1.453-6-1.453-3.3 0-6 .174-6 .387m-181.5 10.177c-6.816 3.524-17.5 17.625-17.5 23.096 0 1.724-.336 1.776 8.19-1.282 9.344-3.352 14.946-6.63 18.768-10.983 7.07-8.052.257-15.855-9.458-10.831m308.237 1.388c-6.326 4.012-17.577 20.542-15.438 22.681 2.06 2.06 24.423-9.081 27.864-13.881 6.605-9.214-2.078-15.363-12.426-8.8m-448.319 86.697c-13.247 13.246-8.142 35.827 9.454 41.823 25.244 8.602 44.977-23.964 25.281-41.722l-4.159-3.75h-26.927l-3.649 3.649m100.958-.406c-13.157 11.552-10.195 32.687 5.719 40.805 21.458 10.947 44.82-12.898 33.326-34.016-5.127-9.42-6.467-10.032-21.963-10.032H500.07l-3.694 3.243m92.137 2.507c7.704 67.381 74.653 108.575 136.903 84.236 34.703-13.568 59.843-46.641 63.24-83.194l.631-6.792H587.856l.657 5.75" fill-rule="evenodd"/>
</svg>